<?xml version="1.0" encoding="UTF-8"?>
<svg xmlns="http://www.w3.org/2000/svg" viewBox="-2 -2 28.1 34.64">
  <path fill="none" stroke-miterlimit="10" d="M16.88,24.84H7.22c-4.12,0-6.65-2.96-6.46-6.84.13-2.56.85-7.65,1-10.22C1.98,3.9,5.1.75,9.22.75h5.66c4.12,0,7.24,3.15,7.46,7.03.15,2.56.87,7.65,1,10.22.19,3.88-2.34,6.84-6.46,6.84Z"/>
  <path fill="none" stroke-miterlimit="10" d="M22.41,8.93c.58,5.8-2.76,9.33-10.36,9.33-7.6,0-10.94-3.53-10.36-9.33"/>
  <line fill="none" stroke-linecap="round" stroke-linejoin="round" x1="12.05" y1="24.84" x2="12.05" y2="29.89"/>
  <line fill="none" stroke-linecap="round" stroke-linejoin="round" x1="5.18" y1="29.89" x2="18.92" y2="29.89"/>
</svg>
